<svg xmlns="http://www.w3.org/2000/svg" viewBox="0 0 382.36 411.58"><defs><style>.cls-1{fill:#fff;}.cls-2{fill:#f9bd00;}.cls-3{fill:#181d1e;}.cls-4,.cls-6{fill:#222c2d;}.cls-5{fill:#e30c34;}.cls-6{opacity:0.09;}.cls-7{fill:none;stroke:#181d1e;stroke-miterlimit:10;stroke-width:19.09px;}</style></defs><title>资源 2</title><g id="图层_2" data-name="图层 2"><g id="图层_1-2" data-name="图层 1"><path class="cls-1" d="M108.67,409.46H94.82V353.68H74.41V342.14h53.93v11.54H108.67Z"/><path class="cls-1" d="M152.81,353.68H139.88V342.14h12.93Zm0,55.78H139.88V359.59h12.93Z"/><path class="cls-1" d="M196.58,352.85c-10.9,0-17.45,8.86-17.45,23.73,0,14.68,6.28,23.37,17,23.37,8.59,0,14-4.9,14.87-13.49h13.48c-.83,15.42-12,25.12-28.72,25.12-18.75,0-30.47-13.57-30.47-35.18,0-21.8,11.82-35.37,30.84-35.37,15.7,0,26.87,8.77,28.07,23.92H211C210.25,361.53,208.13,352.85,196.58,352.85Z"/><path class="cls-1" d="M259.37,369.75c-5.81,0-10,4.06-10,9.79v29.92H236.47V342.14H249.4v24.65c3.6-5.45,8.22-8,14.59-8,7.11,0,16.25,3.42,16.25,17.27v33.43H267.32V379C267.32,373.63,265.38,369.75,259.37,369.75Z"/><path class="cls-1" d="M307.94,353.68H295V342.14h12.92Zm0,55.78H295V359.59h12.92Z"/><path class="cls-2" d="M107.35,112.7,125,170.1l135.87-13.52,5.73-46.73S195.65,79.14,107.35,112.7Z"/><path class="cls-3" d="M191.08,97S64.75,96.62,55.77,170.1,60.36,275.73,79.28,283,158,308,189.86,308.46s137.53-12.81,136.79-48.11S321.51,149,321.51,149,277.78,96.09,191.08,97Z"/><path class="cls-4" d="M60.12,261c4.76,12.13,11.53,19.13,19.16,22.08,18.93,7.31,78.67,25,110.58,25.42s137.53-12.81,136.79-48.11c-.44-21.41-2.24-57.8-3.58-83.14C297.22,204.91,215.64,274.81,60.12,261Z"/><circle class="cls-5" cx="191.21" cy="34.39" r="24.69"/><path class="cls-1" d="M13.73,244.24,27.51,247a5.12,5.12,0,0,0,6.14-5V166.5a5.13,5.13,0,0,0-6.14-5l-13.78,2.78A17.1,17.1,0,0,0,0,181v46.45A17.11,17.11,0,0,0,13.73,244.24Z"/><path class="cls-1" d="M281.83,104.81a261.12,261.12,0,0,0-80.91-16V67.38a34.39,34.39,0,1,0-19.42,0v21.4a261.12,261.12,0,0,0-80.91,16,83,83,0,0,0-53.8,77.66v66.34a47.89,47.89,0,0,0,26.4,42.89,261.91,261.91,0,0,0,236.05,0,47.88,47.88,0,0,0,26.39-42.89V182.47A83,83,0,0,0,281.83,104.81ZM176.23,34.39a15,15,0,1,1,15,15A15,15,0,0,1,176.23,34.39ZM191.17,108h.08a241.54,241.54,0,0,1,69.37,10.18l-9.19,36a4.82,4.82,0,0,0-.11.52A407.16,407.16,0,0,0,191.21,149a407.16,407.16,0,0,0-60.11,5.74c0-.17-.06-.35-.1-.52l-9.19-36A241.48,241.48,0,0,1,191.17,108Zm125,140.8a28.57,28.57,0,0,1-15.75,25.57,242.39,242.39,0,0,1-218.49,0,28.56,28.56,0,0,1-15.76-25.57V182.47a63.58,63.58,0,0,1,37.2-57.83l8.73,34.18a141.28,141.28,0,0,0-24,8.38,15.3,15.3,0,0,0-8.85,13.85v67.34a15.2,15.2,0,0,0,7.27,13c14.48,8.82,50.28,26.49,104.66,26.49s90.18-17.67,104.66-26.49a15.2,15.2,0,0,0,7.27-13V181.05a15.3,15.3,0,0,0-8.85-13.85,141.28,141.28,0,0,0-24-8.38L279,124.64a63.58,63.58,0,0,1,37.2,57.83Z"/><path class="cls-6" d="M289.66,177.09c-34.51-16.17-95.73-17.17-98.45-17.21s-63.89,1-98.45,17.21a4.4,4.4,0,0,0-2.55,4v11.06c39.36,19.83,106.65,43.24,202,40.77V181.05A4.41,4.41,0,0,0,289.66,177.09Z"/><path class="cls-1" d="M368.63,244.24,354.84,247a5.12,5.12,0,0,1-6.14-5V166.5a5.13,5.13,0,0,1,6.14-5l13.79,2.78A17.11,17.11,0,0,1,382.36,181v46.45A17.12,17.12,0,0,1,368.63,244.24Z"/><polygon class="cls-5" points="109.91 200.04 109.91 239.18 143.8 258.75 177.7 239.18 177.7 200.04 143.8 180.47 109.91 200.04"/><polygon class="cls-1" points="143.78 193.53 121.27 206.53 121.27 219.53 132.53 213.03 132.53 239.19 143.78 245.68 143.78 245.68 143.78 206.53 155.03 200.03 143.78 193.53"/><polygon class="cls-1" points="155.1 213.09 155.1 239.18 166.4 232.65 166.4 206.56 155.1 213.09"/><line class="cls-7" x1="213.89" y1="194.82" x2="263.47" y2="244.4"/><line class="cls-7" x1="263.47" y1="194.82" x2="213.89" y2="244.4"/></g></g></svg>